<?xml version="1.0" encoding="utf-8"?>
<!-- Generator: Adobe Illustrator 26.5.1, SVG Export Plug-In . SVG Version: 6.00 Build 0)  -->
<svg version="1.1" id="Layer_1" xmlns="http://www.w3.org/2000/svg" xmlns:xlink="http://www.w3.org/1999/xlink" x="0px" y="0px"
	 viewBox="0 0 32 32" style="enable-background:new 0 0 32 32;" xml:space="preserve">
<style type="text/css">
	.st0{fill:#FFFFFF;}
	.st1{fill:#5093E2;}
</style>
<path class="st0" d="M28,0H4C1.8,0,0,1.8,0,4v24c0,2.2,1.8,4,4,4h24c2.2,0,4-1.8,4-4V4C32,1.8,30.2,0,28,0z M31,28c0,1.7-1.3,3-3,3
	H4c-1.7,0-3-1.3-3-3V4c0-1.7,1.3-3,3-3h24c1.7,0,3,1.3,3,3V28z"/>
<path class="st0" d="M28,1H4C2.3,1,1,2.3,1,4v24c0,1.7,1.3,3,3,3h24c1.7,0,3-1.3,3-3V4C31,2.3,29.7,1,28,1z M11.5,23.9H7.9V13.2h3.6
	V23.9z M9.7,11.8L9.7,11.8c-1.2,0-2-0.8-2-1.9c0-1,0.8-1.8,2-1.8s2,0.8,2,1.8S10.9,11.8,9.7,11.8z M24.3,23.9h-3.6v-5.7
	c0-1.4-0.5-2.4-1.8-2.4c-1,0-1.6,0.7-1.8,1.3C17,17.3,17,17.6,17,17.9v6h-3.6c0,0,0-9.7,0-10.7H17v1.5c0.5-0.7,1.3-1.8,3.2-1.8
	c2.3,0,4.1,1.5,4.1,4.8C24.3,17.7,24.3,23.9,24.3,23.9z"/>
<path class="st1" d="M7.9,13.2v10.7h3.6V13.2H7.9z M9.7,8.1c-1.2,0-2,0.8-2,1.8s0.8,1.9,2,1.9l0,0c1.2,0,2-0.8,2-1.9
	C11.7,8.9,10.9,8.1,9.7,8.1z M20.2,13c-1.9,0-2.7,1-3.2,1.8v-1.5h-3.6c0,1,0,10.7,0,10.7H17v-6c0-0.3,0-0.6,0.1-0.9
	c0.3-0.6,0.9-1.3,1.8-1.3c1.3,0,1.8,1,1.8,2.4v5.7h3.6v-6.1C24.3,14.5,22.5,13,20.2,13z"/>
</svg>
